<svg width="18" height="17" viewBox="0 0 18 17" fill="none" xmlns="http://www.w3.org/2000/svg">
<path d="M3.82225 16.8257C4.42204 17.2529 8.27055 14.5448 9.00763 14.5388C9.7447 14.5329 13.6365 17.1787 14.2293 16.7419C14.8221 16.3051 13.4285 11.8185 13.6506 11.1177C13.8727 10.4169 17.5989 7.54362 17.3655 6.84646C17.132 6.14929 12.4222 6.08454 11.8224 5.65732C11.2226 5.23015 9.63366 0.808558 8.89653 0.814459C8.1595 0.820411 6.64233 5.26699 6.04954 5.70381C5.45675 6.14057 0.748541 6.28116 0.5264 6.98197C0.304308 7.68278 4.07646 10.4957 4.30992 11.1929C4.54333 11.89 3.22247 16.3985 3.82225 16.8257Z" fill="url(#paint0_linear_221_948)"/>
<defs>
<linearGradient id="paint0_linear_221_948" x1="17.376" y1="8.84293" x2="0.51698" y2="8.84293" gradientUnits="userSpaceOnUse">
<stop stop-color="#FCD635"/>
<stop offset="1" stop-color="#F7A928"/>
</linearGradient>
</defs>
</svg>
